<mxfile host="app.diagrams.net" modified="2020-07-15T02:03:59.868Z" agent="5.0 (Macintosh; Intel Mac OS X 10_15_5) AppleWebKit/537.36 (KHTML, like Gecko) Chrome/83.0.4103.116 Safari/537.36" etag="ombKmOjiDg1syY6HE8Rl" version="13.4.1" type="github">
  <diagram id="57rZTOVnbzv8gDINvl2v" name="第 1 页">
    <mxGraphModel dx="786" dy="445" grid="1" gridSize="10" guides="1" tooltips="1" connect="1" arrows="1" fold="1" page="1" pageScale="1" pageWidth="827" pageHeight="1169" math="0" shadow="0">
      <root>
        <mxCell id="0" />
        <mxCell id="1" parent="0" />
        <mxCell id="eBNsloynoJeFFIa06VaY-3" value="" style="rounded=1;whiteSpace=wrap;html=1;" vertex="1" parent="1">
          <mxGeometry x="470" y="80" width="310" height="130" as="geometry" />
        </mxCell>
        <mxCell id="eBNsloynoJeFFIa06VaY-10" value="xacl0" style="rounded=0;whiteSpace=wrap;html=1;" vertex="1" parent="1">
          <mxGeometry x="645" y="140" width="80" height="30" as="geometry" />
        </mxCell>
        <mxCell id="eBNsloynoJeFFIa06VaY-11" value="veth_fw_tx" style="rounded=0;whiteSpace=wrap;html=1;" vertex="1" parent="1">
          <mxGeometry x="605" y="170" width="80" height="30" as="geometry" />
        </mxCell>
        <mxCell id="eBNsloynoJeFFIa06VaY-12" value="eth1" style="rounded=0;whiteSpace=wrap;html=1;" vertex="1" parent="1">
          <mxGeometry x="685" y="170" width="80" height="30" as="geometry" />
        </mxCell>
        <mxCell id="eBNsloynoJeFFIa06VaY-13" value="eth0" style="rounded=0;whiteSpace=wrap;html=1;" vertex="1" parent="1">
          <mxGeometry x="685" y="90" width="80" height="30" as="geometry" />
        </mxCell>
        <mxCell id="eBNsloynoJeFFIa06VaY-14" value="veth_fw_rx" style="rounded=0;whiteSpace=wrap;html=1;" vertex="1" parent="1">
          <mxGeometry x="500" y="170" width="80" height="30" as="geometry" />
        </mxCell>
        <mxCell id="eBNsloynoJeFFIa06VaY-15" value="mirror1" style="rounded=0;whiteSpace=wrap;html=1;" vertex="1" parent="1">
          <mxGeometry x="500" y="90" width="80" height="30" as="geometry" />
        </mxCell>
        <mxCell id="eBNsloynoJeFFIa06VaY-16" value="" style="endArrow=classic;startArrow=classic;html=1;exitX=1;exitY=0.5;exitDx=0;exitDy=0;entryX=0;entryY=0.5;entryDx=0;entryDy=0;" edge="1" parent="1" source="eBNsloynoJeFFIa06VaY-14" target="eBNsloynoJeFFIa06VaY-11">
          <mxGeometry width="50" height="50" relative="1" as="geometry">
            <mxPoint x="635" y="190" as="sourcePoint" />
            <mxPoint x="685" y="140" as="targetPoint" />
          </mxGeometry>
        </mxCell>
        <mxCell id="eBNsloynoJeFFIa06VaY-17" value="10.3.21.227" style="text;html=1;align=center;verticalAlign=middle;resizable=0;points=[];autosize=1;" vertex="1" parent="1">
          <mxGeometry x="685" y="120" width="80" height="20" as="geometry" />
        </mxCell>
        <mxCell id="eBNsloynoJeFFIa06VaY-18" value="192.168.1.2/24" style="text;html=1;align=center;verticalAlign=middle;resizable=0;points=[];autosize=1;" vertex="1" parent="1">
          <mxGeometry x="490" y="120" width="100" height="20" as="geometry" />
        </mxCell>
        <mxCell id="eBNsloynoJeFFIa06VaY-19" value="" style="rounded=1;whiteSpace=wrap;html=1;" vertex="1" parent="1">
          <mxGeometry x="350" y="80" width="110" height="130" as="geometry" />
        </mxCell>
        <mxCell id="eBNsloynoJeFFIa06VaY-20" value="eth0" style="rounded=0;whiteSpace=wrap;html=1;" vertex="1" parent="1">
          <mxGeometry x="365" y="90" width="80" height="30" as="geometry" />
        </mxCell>
        <mxCell id="eBNsloynoJeFFIa06VaY-21" value="10.3.21.229" style="text;html=1;align=center;verticalAlign=middle;resizable=0;points=[];autosize=1;" vertex="1" parent="1">
          <mxGeometry x="365" y="120" width="80" height="20" as="geometry" />
        </mxCell>
        <mxCell id="eBNsloynoJeFFIa06VaY-22" value="eth1" style="rounded=0;whiteSpace=wrap;html=1;" vertex="1" parent="1">
          <mxGeometry x="365" y="160" width="80" height="30" as="geometry" />
        </mxCell>
        <mxCell id="eBNsloynoJeFFIa06VaY-23" value="192.168.91.229" style="text;html=1;align=center;verticalAlign=middle;resizable=0;points=[];autosize=1;" vertex="1" parent="1">
          <mxGeometry x="355" y="190" width="100" height="20" as="geometry" />
        </mxCell>
        <mxCell id="eBNsloynoJeFFIa06VaY-24" value="" style="endArrow=classic;html=1;exitX=0.46;exitY=1;exitDx=0;exitDy=0;exitPerimeter=0;entryX=0.5;entryY=1;entryDx=0;entryDy=0;dashed=1;" edge="1" parent="1" source="eBNsloynoJeFFIa06VaY-23" target="eBNsloynoJeFFIa06VaY-12">
          <mxGeometry width="50" height="50" relative="1" as="geometry">
            <mxPoint x="470" y="260" as="sourcePoint" />
            <mxPoint x="520" y="210" as="targetPoint" />
            <Array as="points">
              <mxPoint x="400" y="260" />
              <mxPoint x="725" y="260" />
            </Array>
          </mxGeometry>
        </mxCell>
      </root>
    </mxGraphModel>
  </diagram>
</mxfile>
